<svg xmlns="http://www.w3.org/2000/svg" width="25" height="17.395" viewBox="0 0 25 17.395">
  <path id="Icon_metro-profile" data-name="Icon metro-profile" d="M27.713,10.2H25.965V7.763l-3.609-.051.019,2.485H11.53L11.6,7.712,8.07,7.763v2.485L6.284,10.2A1.725,1.725,0,0,0,4.5,11.854v11.6a1.725,1.725,0,0,0,1.786,1.657H27.713A1.725,1.725,0,0,0,29.5,23.45v-11.6A1.725,1.725,0,0,0,27.713,10.2ZM23.249,8.54h1.786v3.313H23.249ZM11.642,14.183A2.2,2.2,0,0,1,13.6,16.564a2.2,2.2,0,0,1-1.954,2.381,2.2,2.2,0,0,1-1.954-2.381,2.2,2.2,0,0,1,1.954-2.381ZM8.963,8.54h1.786v3.313H8.963ZM7.773,21.75s.212-1.575.693-1.873a7.268,7.268,0,0,1,1.866-.5s.9.89,1.28.89,1.279-.89,1.279-.89a7.246,7.246,0,0,1,1.867.5c.565.35.706,1.873.706,1.873H7.773Zm18.154-.785H17.892v-.828h8.036Zm0-1.657H17.892V18.48h8.036Zm0-1.657H17.892v-.828h8.036Zm0-1.657H17.892v-.828h8.036Z" transform="translate(-4.499 -7.712)" fill="#707070"/>
</svg>
