<svg xmlns="http://www.w3.org/2000/svg" width="23.707" height="23.708" viewBox="0 0 23.707 23.708">
  <path id="Icon_awesome-tools" data-name="Icon awesome-tools" d="M23.2,18.321,17.778,12.9a3.438,3.438,0,0,0-3.954-.644L8.888,7.32V4.445L2.962,0,0,2.963,4.444,8.89H7.319l4.936,4.936a3.445,3.445,0,0,0,.644,3.954L18.32,23.2a1.721,1.721,0,0,0,2.44,0l2.44-2.44a1.73,1.73,0,0,0,0-2.44Zm-7.843-7.9a4.871,4.871,0,0,1,3.468,1.435l.9.9a6.554,6.554,0,0,0,2.028-1.366,6.659,6.659,0,0,0,1.755-6.329.554.554,0,0,0-.931-.255L19.13,8.246l-3.144-.523-.523-3.144,3.445-3.445A.559.559,0,0,0,18.644.2a6.67,6.67,0,0,0-6.325,1.755,6.561,6.561,0,0,0-1.908,4.8l3.8,3.8A5.044,5.044,0,0,1,15.357,10.418Zm-4.811,3.8L7.921,11.589.865,18.65a2.963,2.963,0,0,0,4.19,4.19l5.723-5.723a4.972,4.972,0,0,1-.232-2.9Zm-7.584,7.64a1.111,1.111,0,1,1,1.111-1.111A1.114,1.114,0,0,1,2.962,21.854Z" transform="translate(0.004)" fill="#707070"/>
</svg>
