<svg xmlns="http://www.w3.org/2000/svg" xmlns:xlink="http://www.w3.org/1999/xlink" width="27" height="15.75" viewBox="0 0 27 15.75">
  <defs>
    <clipPath id="clip-path">
      <rect width="27" height="15.75" fill="none"/>
    </clipPath>
    <clipPath id="clip-path-2">
      <rect width="27" height="2.25" fill="none"/>
    </clipPath>
  </defs>
  <g id="Icon_ionic-ios-menu" data-name="Icon ionic-ios-menu" clip-path="url(#clip-path)">
    <g id="Icon_ionic-ios-menu-2" data-name="Icon ionic-ios-menu" transform="translate(-4.5 -10.125)">
      <g id="Repeat_Grid_1" data-name="Repeat Grid 1" transform="translate(4.5 10.125)" clip-path="url(#clip-path-2)">
        <g transform="translate(-4.5 -10.125)">
          <path id="Path_1" data-name="Path 1" d="M30.375,12.375H5.625A1.128,1.128,0,0,1,4.5,11.25h0a1.128,1.128,0,0,1,1.125-1.125h24.75A1.128,1.128,0,0,1,31.5,11.25h0A1.128,1.128,0,0,1,30.375,12.375Z"/>
        </g>
      </g>
      <path id="Path_2" data-name="Path 2" d="M30.375,19.125H5.625A1.128,1.128,0,0,1,4.5,18h0a1.128,1.128,0,0,1,1.125-1.125h24.75A1.128,1.128,0,0,1,31.5,18h0A1.128,1.128,0,0,1,30.375,19.125Z"/>
      <path id="Path_3" data-name="Path 3" d="M30.375,25.875H5.625A1.128,1.128,0,0,1,4.5,24.75h0a1.128,1.128,0,0,1,1.125-1.125h24.75A1.128,1.128,0,0,1,31.5,24.75h0A1.128,1.128,0,0,1,30.375,25.875Z"/>
    </g>
  </g>
</svg>
